<svg width="246" height="202" viewBox="0 0 246 202" fill="none" xmlns="http://www.w3.org/2000/svg">
<mask id="path-1-outside-1" maskUnits="userSpaceOnUse" x="-2.50704" y="-2.52278" width="249.982" height="206.848" fill="black">
<rect fill="white" x="-2.50704" y="-2.52278" width="249.982" height="206.848"/>
<path fill-rule="evenodd" clip-rule="evenodd" d="M187.681 166.53C190.509 155.973 202.241 150.304 211.912 145.211C218.325 141.833 223.365 135.893 225.389 128.339C227.413 120.785 226.018 113.121 222.153 106.989C216.325 97.743 208.999 86.9673 211.828 76.4102L212.523 73.8164C216.316 59.6616 207.916 45.1121 193.761 41.3194C179.653 37.5391 165.152 45.8716 161.302 59.942C165.002 45.8312 156.611 31.3646 142.502 27.5843C128.348 23.7915 113.798 32.1917 110.005 46.3465L104.211 67.9694C104.211 67.97 104.211 67.9704 104.21 67.9702C104.21 67.9701 104.209 67.9695 104.209 67.9689L110.003 46.347C113.796 32.1921 105.396 17.6427 91.2407 13.8499C77.0859 10.0571 62.5364 18.4573 58.7436 32.6121L58.0467 35.2133C55.2187 45.7673 43.4927 51.4363 33.8261 56.5293C27.4142 59.9075 22.3753 65.8469 20.3517 73.3994C18.328 80.9519 19.7221 88.615 23.5858 94.7465C29.4109 103.991 36.7314 114.763 33.9034 125.317L33.2053 127.922C29.4125 142.077 37.8127 156.627 51.9675 160.419C66.1224 164.212 80.6718 155.812 84.4646 141.657L90.2593 120.031C90.2595 120.031 90.2601 120.03 90.2607 120.03C90.2612 120.031 90.2616 120.031 90.2614 120.032L84.467 141.657C80.6743 155.812 89.0744 170.361 103.229 174.154C117.338 177.934 131.838 169.602 135.689 155.531C131.988 169.642 140.379 184.109 154.488 187.889C168.643 191.682 183.192 183.282 186.985 169.127L187.681 166.53Z"/>
</mask>
<path fill-rule="evenodd" clip-rule="evenodd" d="M187.681 166.53C190.509 155.973 202.241 150.304 211.912 145.211C218.325 141.833 223.365 135.893 225.389 128.339C227.413 120.785 226.018 113.121 222.153 106.989C216.325 97.743 208.999 86.9673 211.828 76.4102L212.523 73.8164C216.316 59.6616 207.916 45.1121 193.761 41.3194C179.653 37.5391 165.152 45.8716 161.302 59.942C165.002 45.8312 156.611 31.3646 142.502 27.5843C128.348 23.7915 113.798 32.1917 110.005 46.3465L104.211 67.9694C104.211 67.97 104.211 67.9704 104.21 67.9702C104.21 67.9701 104.209 67.9695 104.209 67.9689L110.003 46.347C113.796 32.1921 105.396 17.6427 91.2407 13.8499C77.0859 10.0571 62.5364 18.4573 58.7436 32.6121L58.0467 35.2133C55.2187 45.7673 43.4927 51.4363 33.8261 56.5293C27.4142 59.9075 22.3753 65.8469 20.3517 73.3994C18.328 80.9519 19.7221 88.615 23.5858 94.7465C29.4109 103.991 36.7314 114.763 33.9034 125.317L33.2053 127.922C29.4125 142.077 37.8127 156.627 51.9675 160.419C66.1224 164.212 80.6718 155.812 84.4646 141.657L90.2593 120.031C90.2595 120.031 90.2601 120.03 90.2607 120.03C90.2612 120.031 90.2616 120.031 90.2614 120.032L84.467 141.657C80.6743 155.812 89.0744 170.361 103.229 174.154C117.338 177.934 131.838 169.602 135.689 155.531C131.988 169.642 140.379 184.109 154.488 187.889C168.643 191.682 183.192 183.282 186.985 169.127L187.681 166.53Z" fill="#271A58"/>
<path d="M212.523 73.8164L210.591 73.2988L212.523 73.8164ZM161.302 59.942L159.367 59.4347L163.231 60.47L161.302 59.942ZM110.005 46.3465L108.073 45.8289L110.005 46.3465ZM135.689 155.531L137.623 156.039L133.759 155.003L135.689 155.531ZM222.153 106.989L223.845 105.923L222.153 106.989ZM211.828 76.4102L213.76 76.9278L211.828 76.4102ZM104.211 67.9694L106.143 68.4871L104.211 67.9694ZM223.457 127.821C221.583 134.814 216.92 140.312 210.979 143.441L212.844 146.98C219.729 143.353 225.146 136.971 227.321 128.857L223.457 127.821ZM220.461 108.056C224.041 113.736 225.331 120.828 223.457 127.821L227.321 128.857C229.495 120.742 227.995 112.506 223.845 105.923L220.461 108.056ZM210.591 73.2988L209.896 75.8925L213.76 76.9278L214.455 74.3341L210.591 73.2988ZM193.243 43.2512C206.331 46.7581 214.098 60.2109 210.591 73.2988L214.455 74.3341C218.534 59.1123 209.5 43.4662 194.279 39.3875L193.243 43.2512ZM163.231 60.47C166.791 47.4603 180.198 39.7559 193.243 43.2512L194.279 39.3875C179.107 35.3222 163.514 44.2828 159.373 59.4141L163.231 60.47ZM141.985 29.5161C155.03 33.0115 162.789 46.3877 159.367 59.4347L163.236 60.4494C167.216 45.2747 158.192 29.7177 143.02 25.6524L141.985 29.5161ZM111.937 46.8642C115.444 33.7762 128.897 26.0092 141.985 29.5161L143.02 25.6524C127.798 21.5738 112.152 30.6071 108.073 45.8289L111.937 46.8642ZM106.143 68.4871L111.937 46.8642L108.073 45.8289L102.28 67.4518L106.143 68.4871ZM108.071 45.8294L102.278 67.4512L106.141 68.4865L111.935 46.8646L108.071 45.8294ZM90.7231 15.7818C103.811 19.2887 111.578 32.7414 108.071 45.8294L111.935 46.8646C116.013 31.6428 106.98 15.9967 91.7584 11.9181L90.7231 15.7818ZM60.6755 33.1298C64.1824 20.0418 77.6352 12.2749 90.7231 15.7818L91.7584 11.9181C76.5366 7.83939 60.8904 16.8727 56.8118 32.0945L60.6755 33.1298ZM59.9785 35.7309L60.6755 33.1298L56.8118 32.0945L56.1148 34.6957L59.9785 35.7309ZM22.2835 73.917C24.157 66.925 28.8188 61.4281 34.7583 58.2988L32.8938 54.7599C26.0096 58.387 20.5937 64.7688 18.4198 72.8817L22.2835 73.917ZM25.2779 93.6803C21.6988 88.0004 20.41 80.909 22.2835 73.917L18.4198 72.8817C16.246 80.9947 17.7454 89.2295 21.8938 95.8128L25.2779 93.6803ZM35.1372 128.44L35.8353 125.835L31.9716 124.799L31.2735 127.405L35.1372 128.44ZM52.4852 158.488C39.3972 154.981 31.6303 141.528 35.1372 128.44L31.2735 127.405C27.1948 142.627 36.2281 158.273 51.4499 162.351L52.4852 158.488ZM82.5328 141.14C79.0259 154.227 65.5731 161.994 52.4852 158.488L51.4499 162.351C66.6717 166.43 82.3178 157.397 86.3965 142.175L82.5328 141.14ZM88.3274 119.514L82.5328 141.14L86.3965 142.175L92.1911 120.549L88.3274 119.514ZM86.3989 142.174L92.1933 120.549L88.3296 119.514L82.5352 141.139L86.3989 142.174ZM103.747 172.222C90.659 168.715 82.892 155.262 86.3989 142.174L82.5352 141.139C78.4565 156.361 87.4898 172.007 102.712 176.086L103.747 172.222ZM133.759 155.003C130.199 168.013 116.792 175.717 103.747 172.222L102.712 176.086C117.883 180.151 133.477 171.19 137.618 156.059L133.759 155.003ZM155.005 185.957C141.96 182.462 134.201 169.086 137.623 156.039L133.754 155.024C129.774 170.199 138.798 185.755 153.97 189.821L155.005 185.957ZM185.053 168.609C181.546 181.697 168.093 189.464 155.005 185.957L153.97 189.821C169.192 193.899 184.838 184.866 188.917 169.644L185.053 168.609ZM185.749 166.013L185.053 168.609L188.917 169.644L189.612 167.048L185.749 166.013ZM21.8938 95.8128C24.8448 100.496 28.023 105.34 30.1499 110.325C32.2673 115.288 33.2226 120.131 31.9716 124.799L35.8353 125.835C37.4122 119.949 36.1213 114.128 33.8291 108.756C31.5465 103.405 28.1519 98.2412 25.2779 93.6803L21.8938 95.8128ZM89.743 121.962C88.6766 121.677 88.0439 120.58 88.3296 119.514L92.1933 120.549C92.4793 119.482 91.8459 118.385 90.7783 118.099L89.743 121.962ZM104.728 66.0384C105.794 66.324 106.427 67.4199 106.141 68.4865L102.278 67.4512C101.991 68.5191 102.625 69.6161 103.693 69.9021L104.728 66.0384ZM223.845 105.923C220.892 101.238 217.712 96.393 215.584 91.4062C213.465 86.4417 212.509 81.598 213.76 76.9278L209.896 75.8925C208.319 81.7795 209.611 87.6022 211.905 92.9764C214.189 98.3282 217.586 103.494 220.461 108.056L223.845 105.923ZM56.1148 34.6957C54.8638 39.3644 51.6153 43.0803 47.3002 46.3197C42.9655 49.5737 37.791 52.1797 32.8938 54.7599L34.7583 58.2988C39.5278 55.7859 45.0496 53.0109 49.7016 49.5186C54.3731 46.0117 58.4016 41.6161 59.9785 35.7309L56.1148 34.6957ZM92.1911 120.549C91.9054 121.615 90.8094 122.248 89.743 121.962L90.7783 118.099C89.7108 117.813 88.6135 118.446 88.3274 119.514L92.1911 120.549ZM102.28 67.4518C102.565 66.3855 103.661 65.7526 104.728 66.0384L103.693 69.9021C104.76 70.1881 105.857 69.5546 106.143 68.4871L102.28 67.4518ZM210.979 143.441C206.208 145.954 200.684 148.729 196.03 152.222C191.356 155.729 187.326 160.126 185.749 166.013L189.612 167.048C190.864 162.378 194.114 158.661 198.431 155.421C202.768 152.167 207.945 149.56 212.844 146.98L210.979 143.441Z" fill="#FF8071" mask="url(#path-1-outside-1)"/>
<path d="M62.0049 76.8293L65.6227 64.1763L70.1609 65.4739L66.543 78.1269L68.466 78.6767L72.5897 64.2546L64.2056 61.8574L60.082 76.2794L62.0049 76.8293ZM75.266 80.829C78.0542 81.6263 80.7193 80.1625 81.5605 77.2204C82.4018 74.2783 80.9133 71.627 78.125 70.8297C75.3368 70.0325 72.6717 71.4962 71.8305 74.4383C70.9892 77.3804 72.4777 80.0318 75.266 80.829ZM75.7718 79.0599C74.0988 78.5816 73.1981 76.9303 73.7534 74.9881C74.3087 73.046 75.9463 72.1205 77.6192 72.5988C79.2922 73.0772 80.1929 74.7284 79.6376 76.6706C79.0823 78.6128 77.4448 79.5383 75.7718 79.0599ZM88.7734 84.4832L93.8408 76.9458L91.4655 85.2529L93.3885 85.8028L96.1376 76.1881L92.9455 75.2754L88.2958 82.5161L88.1766 73.9118L84.9268 72.9826L82.1777 82.5973L83.9468 83.1031L86.3221 74.796L86.6197 83.8674L88.7734 84.4832ZM105.997 84.9149C106.077 84.7088 106.157 84.5028 106.223 84.2721C107.064 81.33 105.652 78.7006 102.922 77.9199C100.191 77.1391 97.6031 78.6248 96.7618 81.5669C95.9206 84.509 97.3321 87.1384 100.063 87.9191C102.274 88.5514 104.26 87.9337 105.423 86.1235L103.346 85.5297C102.714 86.2851 101.796 86.5843 100.623 86.2489C99.0082 85.7871 98.2118 84.4985 98.4594 82.7596L105.997 84.9149ZM102.438 79.612C103.976 80.0519 104.759 81.3158 104.528 82.997L98.8745 81.3805C99.5671 79.8312 100.88 79.1667 102.438 79.612ZM108.769 90.2005L109.907 86.2201L114.522 87.5396L113.384 91.5201L115.307 92.0699L118.056 82.4552L116.133 81.9054L115.023 85.7898L110.408 84.4702L111.518 80.5858L109.595 80.036L106.846 89.6507L108.769 90.2005ZM119.712 86.0906C119.179 87.9558 120.374 89.3791 121.961 89.9371L117.126 92.59L119.376 93.2332L124.733 90.2096L124.753 90.2151L123.548 94.4264L125.471 94.9762L128.22 85.3615L124.086 84.1794C122.163 83.6296 120.312 83.9946 119.712 86.0906ZM123.121 88.7918C121.909 88.4454 121.316 87.7557 121.63 86.6596C121.91 85.6789 122.784 85.3879 123.995 85.7343L125.88 86.2731L125.005 89.3306L123.121 88.7918ZM137.968 82.9483C137.66 84.0252 136.938 84.297 136.169 84.0771C135.457 83.8736 134.949 83.2499 135.257 82.1731L133.719 81.7332C133.202 83.5408 134.067 84.953 135.778 85.4424C137.509 85.9372 138.99 85.1958 139.507 83.3882L137.968 82.9483ZM136.864 98.2336L139.613 88.6189L137.171 87.9206L130.573 94.3341L132.767 86.6615L130.921 86.1337L128.172 95.7484L130.614 96.4467L137.211 90.0332L135.018 97.7058L136.864 98.2336ZM152.327 96.3937L154.327 96.9655C154.783 94.4959 153.264 92.3143 150.726 91.5885C147.976 90.8023 145.35 92.277 144.509 95.2191C143.667 98.1612 145.117 100.802 147.867 101.588C150.482 102.336 152.985 101.221 153.865 98.7264L151.865 98.1546C151.216 99.6957 149.777 100.22 148.373 99.8187C146.738 99.3514 145.876 97.7111 146.431 95.7689C146.987 93.8268 148.586 92.8903 150.22 93.3576C151.605 93.7535 152.552 94.8773 152.327 96.3937ZM154.706 103.335L159.628 104.743C161.628 105.314 163.123 104.743 163.651 102.897C163.997 101.686 163.544 100.724 162.585 100.076C163.511 99.966 164.198 99.4552 164.489 98.436C164.968 96.7631 163.993 95.5898 162.224 95.084L157.455 93.7204L154.706 103.335ZM161.248 96.386C162.44 96.7269 162.83 97.2544 162.583 98.1197C162.352 98.9274 161.725 99.2267 160.533 98.8858L158.168 98.2095L158.883 95.7097L161.248 96.386ZM160.5 100.457C161.577 100.765 161.997 101.405 161.744 102.29C161.491 103.174 160.796 103.496 159.719 103.188L156.969 102.402L157.75 99.6709L160.5 100.457ZM169.307 107.718C172.096 108.515 174.761 107.052 175.602 104.11C176.443 101.168 174.955 98.5162 172.167 97.719C169.378 96.9217 166.713 98.3854 165.872 101.328C165.031 104.27 166.519 106.921 169.307 107.718ZM169.813 105.949C168.14 105.471 167.24 103.82 167.795 101.877C168.35 99.9352 169.988 99.0097 171.661 99.4881C173.334 99.9664 174.234 101.618 173.679 103.56C173.124 105.502 171.486 106.427 169.813 105.949ZM178.142 110.036L179.28 106.056L180.896 106.518C180.527 109.116 181.991 111.345 184.491 112.06C187.26 112.851 189.925 111.388 190.766 108.445C191.607 105.503 190.119 102.852 187.35 102.06C184.888 101.356 182.498 102.441 181.415 104.773L179.781 104.306L180.891 100.422L178.968 99.8718L176.219 109.486L178.142 110.036ZM184.996 110.29C183.323 109.812 182.442 108.166 182.997 106.224C183.553 104.282 185.171 103.351 186.844 103.829C188.517 104.308 189.398 105.953 188.843 107.896C188.288 109.838 186.669 110.769 184.996 110.29ZM51.3571 82.1054L49.4342 81.5555L48.2246 85.786L45.7422 80.4999L43.1846 79.7686L46.0654 85.335L40.0894 89.2843L42.5123 89.9771L48.1201 86.1514L46.6851 91.1702L48.608 91.7201L50.0541 86.6627L52.7808 92.9132L55.146 93.5895L52.238 87.1L57.5298 83.8703L55.0684 83.1665L50.142 86.3551L51.3571 82.1054ZM65.3403 96.5043L68.0894 86.8896L65.6473 86.1913L59.0499 92.6048L61.2437 84.9322L59.3977 84.4044L56.6486 94.0191L59.0907 94.7174L65.6881 88.3039L63.4943 95.9765L65.3403 96.5043ZM72.0244 92.3415L71.6121 93.7837L73.1312 94.218C74.2273 94.5314 74.7573 95.2238 74.4989 96.1276C74.2625 96.9545 73.4904 97.3994 71.9905 96.9705C70.4137 96.5196 69.8453 95.525 70.2191 94.2174L68.2962 93.6676C67.6419 95.9559 68.8448 97.7144 71.537 98.4841C74.1714 99.2374 75.8885 98.5427 76.4054 96.7351C76.7133 95.6583 76.3453 94.7626 75.3729 94.0894C76.4306 93.955 77.1478 93.2655 77.4172 92.3233C77.8461 90.8234 76.9536 89.2161 74.396 88.4848C71.6847 87.7096 69.8301 88.885 69.2913 90.7695L71.2142 91.3193C71.5661 90.0887 72.5524 89.6218 73.9562 90.0232C75.283 90.4026 75.7581 91.1417 75.5272 91.9493C75.2853 92.7954 74.6012 93.0782 73.5436 92.7758L72.0244 92.3415ZM79.5969 100.581L80.7351 96.6002L85.3501 97.9198L84.212 101.9L86.1349 102.45L88.884 92.8354L86.9611 92.2856L85.8504 96.1699L81.2354 94.8503L82.346 90.966L80.4231 90.4162L77.674 100.031L79.5969 100.581ZM97.5077 102.207C98.052 100.304 97.0606 98.6056 94.7339 97.9403L92.5994 97.33L93.5066 94.1571L91.5837 93.6073L88.8345 103.222L92.9112 104.388C95.3148 105.075 96.9634 104.111 97.5077 102.207ZM94.1182 99.5116C95.4258 99.8855 95.8926 100.581 95.5902 101.638C95.2933 102.677 94.5076 103.097 93.2 102.723L91.2193 102.157L92.1375 98.9453L94.1182 99.5116ZM106.77 102.276L106.358 103.719L107.877 104.153C108.973 104.466 109.503 105.159 109.245 106.062C109.008 106.889 108.236 107.334 106.736 106.905C105.16 106.455 104.591 105.46 104.965 104.152L103.042 103.602C102.388 105.891 103.591 107.649 106.283 108.419C108.917 109.172 110.634 108.478 111.151 106.67C111.459 105.593 111.091 104.697 110.119 104.024C111.176 103.89 111.894 103.2 112.163 102.258C112.592 100.758 111.699 99.151 109.142 98.4197C106.431 97.6445 104.576 98.8199 104.037 100.704L105.96 101.254C106.312 100.024 107.298 99.5567 108.702 99.9581C110.029 100.337 110.504 101.077 110.273 101.884C110.031 102.73 109.347 103.013 108.289 102.711L106.77 102.276ZM115.059 110.928C116.443 111.324 117.828 111.138 118.825 110.05L118.364 111.665L120.248 112.204L122.172 105.474C122.81 103.243 121.129 101.847 119.052 101.253C116.937 100.649 114.668 101.019 113.959 103.5L115.958 104.071C116.316 102.822 117.363 102.434 118.613 102.792C119.786 103.127 120.541 103.905 120.271 104.847C119.645 107.039 113.758 103.109 112.571 107.263C112.026 109.167 113.347 110.439 115.059 110.928ZM114.565 107.708C115.027 106.093 117.834 107.333 119.694 107.012L119.496 107.704C119.018 109.377 117.386 109.846 115.905 109.423C114.925 109.143 114.328 108.535 114.565 107.708ZM128.983 114.702L131.227 106.856L135.573 108.099L133.329 115.944L135.252 116.494L138.001 106.879L129.81 104.537L127.06 114.152L128.983 114.702ZM142.075 118.653C144.864 119.45 147.529 117.987 148.37 115.045C149.211 112.102 147.723 109.451 144.935 108.654C142.146 107.857 139.481 109.32 138.64 112.262C137.799 115.205 139.287 117.856 142.075 118.653ZM142.581 116.884C140.908 116.406 140.008 114.754 140.563 112.812C141.118 110.87 142.756 109.945 144.429 110.423C146.102 110.901 147.002 112.553 146.447 114.495C145.892 116.437 144.254 117.362 142.581 116.884ZM156.945 122.697L159.695 113.082L152.58 111.048C151.323 115.369 150.716 116.984 150.249 117.745C149.848 118.421 149.337 118.608 148.817 118.459L148.663 118.415L148.158 120.184L148.504 120.283C150.042 120.723 151.07 120.33 152.161 118.042C152.611 117.048 153.142 115.556 153.824 113.317L157.266 114.302L155.023 122.147L156.945 122.697ZM161.564 124.017L163.807 116.172L168.21 117.431L168.716 115.662L162.39 113.853L159.641 123.468L161.564 124.017ZM171.538 127.078C174.327 127.875 176.992 126.411 177.833 123.469C178.674 120.527 177.186 117.875 174.398 117.078C171.609 116.281 168.944 117.745 168.103 120.687C167.262 123.629 168.75 126.28 171.538 127.078ZM172.044 125.308C170.371 124.83 169.471 123.179 170.026 121.237C170.581 119.294 172.219 118.369 173.892 118.847C175.565 119.326 176.465 120.977 175.91 122.919C175.355 124.861 173.717 125.787 172.044 125.308ZM177.879 126.769L176.631 131.134L178.4 131.64L179.142 129.044L186.2 131.062L185.457 133.658L187.227 134.163L188.475 129.798L187.129 129.413L189.372 121.568L181.969 119.451C180.319 125.074 179.561 126.272 178.821 127.038L177.879 126.769ZM181.918 125.448C182.281 124.616 182.698 123.446 183.213 121.72L186.943 122.787L185.206 128.864L180.764 127.593C181.093 127.168 181.445 126.519 181.918 125.448ZM192.569 133.091C193.953 133.487 195.338 133.3 196.336 132.212L195.874 133.828L197.758 134.366L199.683 127.636C200.32 125.406 198.639 124.01 196.563 123.416C194.447 122.811 192.178 123.181 191.469 125.662L193.469 126.234C193.826 124.984 194.873 124.597 196.123 124.954C197.296 125.29 198.051 126.067 197.782 127.009C197.155 129.202 191.268 125.272 190.081 129.425C189.536 131.329 190.858 132.601 192.569 133.091ZM192.075 129.871C192.537 128.256 195.344 129.495 197.204 129.174L197.006 129.866C196.528 131.539 194.896 132.009 193.415 131.585C192.435 131.305 191.839 130.698 192.075 129.871Z" fill="#FF8071"/>
</svg>
