<svg width="210" height="209" viewBox="0 0 210 209" fill="none" xmlns="http://www.w3.org/2000/svg">
<path d="M55.3306 164.534L56.5457 164.424L56.4348 163.2L55.2121 163.319L55.3306 164.534ZM9.39688 150.668L10.4958 150.138L9.39688 150.668ZM112.861 188.121L113.644 187.184L112.699 186.395L111.918 187.347L112.861 188.121ZM151.116 200.153L150.586 199.054L151.116 200.153ZM164.981 154.217L164.871 153.002L163.648 153.113L163.767 154.336L164.981 154.217ZM188.569 96.6869L187.633 95.9046L186.843 96.8494L187.795 97.6302L188.569 96.6869ZM200.602 58.4324L201.7 57.9023L200.602 58.4324ZM154.659 44.5679L153.444 44.678L153.555 45.9016L154.777 45.7822L154.659 44.5679ZM132.467 2.02408L132.783 0.8456L132.467 2.02408ZM97.132 20.9787L96.3497 21.9149L97.2944 22.7043L98.0752 21.7525L97.132 20.9787ZM58.8804 8.94861L59.4105 10.0475L58.8804 8.94861ZM45.0157 54.8892L45.1258 56.1043L46.3494 55.9934L46.23 54.7706L45.0157 54.8892ZM21.4272 112.416L22.3634 113.199L23.1528 112.254L22.201 111.473L21.4272 112.416ZM55.2121 163.319C43.8017 164.433 33.8861 163.863 26.1772 161.625C18.4685 159.387 13.0943 155.525 10.4958 150.138L8.298 151.198C11.3 157.422 17.3902 161.615 25.4969 163.968C33.6035 166.322 43.8545 166.879 55.4491 165.748L55.2121 163.319ZM77.8384 205.901C72.0609 204.353 67.2638 199.793 63.6269 192.636C59.9899 185.479 57.5801 175.843 56.5457 164.424L54.1155 164.644C55.1667 176.247 57.6269 186.216 61.4515 193.742C65.2762 201.268 70.5323 206.47 77.2068 208.258L77.8384 205.901ZM111.918 187.347C106.039 194.514 100.035 199.859 94.2235 203.054C88.4195 206.244 82.8818 207.253 77.8384 205.901L77.2068 208.258C83.0283 209.818 89.2198 208.588 95.3989 205.192C101.571 201.8 107.804 196.21 113.805 188.894L111.918 187.347ZM150.586 199.054C145.883 201.323 140.255 201.365 133.958 199.314C127.653 197.26 120.757 193.129 113.644 187.184L112.079 189.057C119.339 195.124 126.506 199.453 133.202 201.634C139.906 203.818 146.218 203.871 151.646 201.252L150.586 199.054ZM163.767 154.336C164.881 165.747 164.311 175.663 162.073 183.372C159.835 191.081 155.973 196.456 150.586 199.054L151.646 201.252C157.87 198.25 162.063 192.16 164.416 184.052C166.77 175.946 167.327 165.694 166.196 154.099L163.767 154.336ZM206.349 131.71C204.801 137.487 200.241 142.284 193.084 145.921C185.927 149.558 176.291 151.968 164.871 153.002L165.091 155.433C176.695 154.381 186.663 151.921 194.19 148.097C201.716 144.272 206.918 139.016 208.706 132.341L206.349 131.71ZM187.795 97.6302C194.962 103.51 200.308 109.514 203.502 115.325C206.692 121.129 207.701 126.666 206.349 131.71L208.706 132.341C210.266 126.52 209.037 120.328 205.64 114.149C202.248 107.978 196.658 101.745 189.343 95.7437L187.795 97.6302ZM199.503 58.9625C201.771 63.6652 201.813 69.2937 199.762 75.5908C197.708 81.8958 193.577 88.7914 187.633 95.9046L189.505 97.4693C195.572 90.2089 199.901 83.0427 202.082 76.3465C204.266 69.6425 204.319 63.3305 201.7 57.9023L199.503 58.9625ZM154.777 45.7822C166.19 44.6677 176.108 45.2371 183.818 47.4749C191.529 49.7127 196.904 53.5751 199.503 58.9625L201.7 57.9023C198.698 51.6783 192.607 47.4849 184.498 45.1315C176.39 42.7783 166.137 42.2212 154.54 43.3537L154.777 45.7822ZM132.151 3.20256C137.929 4.75058 142.726 9.3103 146.362 16.4668C149.999 23.6234 152.409 33.2593 153.444 44.678L155.874 44.4578C154.823 32.8548 152.362 22.887 148.538 15.3613C144.713 7.83533 139.457 2.63399 132.783 0.8456L132.151 3.20256ZM98.0752 21.7525C103.954 14.5868 109.957 9.24254 115.768 6.04907C121.571 2.85959 127.108 1.85131 132.151 3.20256L132.783 0.8456C126.962 -0.714107 120.771 0.515024 114.593 3.91064C108.422 7.30225 102.189 12.8908 96.1887 20.2048L98.0752 21.7525ZM59.4105 10.0475C64.1128 7.77911 69.7408 7.7367 76.0374 9.78758C82.3419 11.841 89.237 15.9716 96.3497 21.9149L97.9143 20.0425C90.6544 13.9762 83.4888 9.64829 76.7931 7.46744C70.0896 5.28401 63.7781 5.2314 58.3503 7.84973L59.4105 10.0475ZM46.23 54.7706C45.1157 43.3585 45.6852 33.4414 47.9231 25.7313C50.1609 18.0213 54.0232 12.6463 59.4105 10.0475L58.3503 7.84973C52.1264 10.8521 47.9331 16.9431 45.5797 25.0511C43.2264 33.1588 42.6692 43.4114 43.8014 55.0077L46.23 54.7706ZM3.65071 77.3967C5.19872 71.6195 9.7584 66.8225 16.9148 63.1856C24.0713 59.5487 33.7072 57.1389 45.1258 56.1043L44.9056 53.6741C33.3027 54.7254 23.335 57.1858 15.8093 61.0103C8.28343 64.835 3.08213 70.0909 1.29375 76.7652L3.65071 77.3967ZM22.201 111.473C15.0351 105.594 9.69083 99.5908 6.49729 93.7801C3.30776 87.9768 2.29946 82.4397 3.65071 77.3967L1.29375 76.7652C-0.265967 82.5861 0.963196 88.777 4.35887 94.9554C7.75055 101.127 13.3392 107.359 20.6533 113.36L22.201 111.473ZM10.4958 150.138C8.22736 145.436 8.18496 139.808 10.2359 133.511C12.2894 127.207 16.42 120.311 22.3634 113.199L20.491 111.634C14.4246 118.894 10.0966 126.06 7.91575 132.755C5.73228 139.459 5.67965 145.77 8.298 151.198L10.4958 150.138Z" fill="white"/>
</svg>
