<svg width="209" height="130" viewBox="0 0 209 130" fill="none" xmlns="http://www.w3.org/2000/svg">
<path d="M141.141 3.42754L141.489 4.88657L141.49 4.88644L141.141 3.42754ZM141.103 3.43667L140.755 1.97764L140.754 1.97789L141.103 3.43667ZM141.065 3.44584L141.413 4.90475L141.414 4.90462L141.065 3.44584ZM56.5473 23.6461L56.896 25.105L56.5473 23.6461ZM61.4906 44.4673L61.8393 45.9262L61.1462 43.0074L61.4906 44.4673ZM23.1452 53.6322L23.4939 55.0911L23.1452 53.6322ZM28.1198 74.4459L28.4685 75.9049L28.1198 74.4459ZM49.5722 69.3187L49.9226 70.7772L49.2235 67.8598L49.5722 69.3187ZM10.3308 100.7L10.6795 102.159L10.6795 102.159L10.3308 100.7ZM76.3045 106.935L76.6724 108.389L75.9558 105.476L76.3045 106.935ZM81.4188 127.714L81.7674 129.173L81.4188 127.714ZM165.662 107.58L165.322 106.119L165.313 106.121L165.662 107.58ZM166.29 107.43L165.941 105.971L165.933 105.973L166.29 107.43ZM167.268 107.196L167.617 108.655L167.268 107.196ZM143.07 3.00482L142.775 1.53402L143.07 3.00482ZM167.279 107.177L166.895 105.727L167.279 107.177ZM204.115 43.3832C210.689 70.8903 194.078 98.5175 166.895 105.727L167.664 108.627C196.417 101.001 213.987 71.7803 207.033 42.6858L204.115 43.3832ZM143.364 4.47563C170.653 -0.988611 197.591 16.0886 204.115 43.3832L207.033 42.6858C200.133 13.8159 171.64 -4.24587 142.775 1.53402L143.364 4.47563ZM141.49 4.88644L143.374 4.43608L142.677 1.51827L140.792 1.96863L141.49 4.88644ZM141.451 4.89571L141.489 4.88657L140.793 1.9685L140.755 1.97764L141.451 4.89571ZM141.414 4.90462L141.452 4.89546L140.754 1.97789L140.715 1.98705L141.414 4.90462ZM56.896 25.105L141.413 4.90475L140.716 1.98693L56.1986 22.1872L56.896 25.105ZM50.0867 36.1916C48.9056 31.2498 51.9542 26.2862 56.896 25.105L56.1986 22.1872C49.6453 23.7535 45.6026 30.3357 47.1689 36.889L50.0867 36.1916ZM61.1462 43.0074C56.2134 44.171 51.2657 41.1244 50.0867 36.1916L47.1689 36.889C48.7323 43.4304 55.2934 47.4703 61.835 45.9273L61.1462 43.0074ZM23.4939 55.0911L61.8393 45.9262L61.1419 43.0084L22.7965 52.1733L23.4939 55.0911ZM16.6845 66.1777C15.5034 61.2359 18.552 56.2722 23.4939 55.0911L22.7965 52.1733C16.2432 53.7396 12.2004 60.3218 13.7667 66.8751L16.6845 66.1777ZM27.7711 72.987C22.8293 74.1682 17.8656 71.1195 16.6845 66.1777L13.7667 66.8751C15.333 73.4284 21.9152 77.4711 28.4685 75.9049L27.7711 72.987ZM49.2235 67.8598L27.7711 72.987L28.4685 75.9049L49.9209 70.7776L49.2235 67.8598ZM43.1241 81.8612C41.9438 76.923 44.9872 71.9629 49.9226 70.7772L49.2218 67.8602C42.6769 69.4326 38.6411 76.01 40.2063 82.5586L43.1241 81.8612ZM54.2107 88.6705C49.2689 89.8517 44.3052 86.803 43.1241 81.8612L40.2063 82.5586C41.7726 89.1119 48.3548 93.1546 54.9081 91.5883L54.2107 88.6705ZM10.6795 102.159L54.9081 91.5883L54.2107 88.6705L9.98214 99.2415L10.6795 102.159ZM3.87018 113.246C2.68904 108.304 5.73769 103.34 10.6795 102.159L9.98214 99.2415C3.42884 100.808 -0.613927 107.39 0.952361 113.943L3.87018 113.246ZM14.9568 120.055C10.015 121.236 5.05131 118.188 3.87018 113.246L0.952361 113.943C2.51865 120.497 9.10087 124.539 15.6542 122.973L14.9568 120.055ZM75.9558 105.476L14.9568 120.055L15.6542 122.973L76.6532 108.394L75.9558 105.476ZM69.9835 119.446C68.8119 114.545 71.8018 109.621 76.6724 108.389L75.9366 105.481C69.4768 107.115 65.512 113.643 67.0656 120.144L69.9835 119.446ZM81.0701 126.255C76.1282 127.437 71.1646 124.388 69.9835 119.446L67.0656 120.144C68.6319 126.697 75.2141 130.74 81.7674 129.173L81.0701 126.255ZM165.313 106.121L81.0701 126.255L81.7674 129.173L166.011 109.039L165.313 106.121ZM165.627 106.047C165.526 106.071 165.424 106.095 165.322 106.119L166.002 109.041C166.11 109.016 166.217 108.99 166.325 108.964L165.627 106.047ZM165.933 105.973C165.831 105.998 165.729 106.022 165.627 106.047L166.325 108.964C166.432 108.939 166.54 108.913 166.647 108.886L165.933 105.973ZM166.919 105.737L165.941 105.971L166.639 108.888L167.617 108.655L166.919 105.737ZM167.617 108.655C168.427 108.461 168.926 107.648 168.733 106.838L165.815 107.535C165.623 106.734 166.118 105.928 166.919 105.737L167.617 108.655ZM144.507 2.64224C144.312 1.82652 143.492 1.32331 142.677 1.51827L143.374 4.43608C142.578 4.62627 141.779 4.13538 141.589 3.33962L144.507 2.64224ZM142.775 1.53402C143.547 1.37954 144.319 1.85749 144.507 2.64224L141.589 3.33962C141.781 4.14383 142.573 4.63403 143.364 4.47563L142.775 1.53402ZM166.895 105.727C166.114 105.934 165.622 106.729 165.815 107.535L168.733 106.838C168.923 107.635 168.437 108.422 167.664 108.627L166.895 105.727Z" fill="#ABD52E"/>
</svg>
